<svg width="446" height="640" viewBox="0 0 446 640" fill="none" xmlns="http://www.w3.org/2000/svg">
<path d="M223.211 0C100.547 0 0.75 99.7969 0.75 222.461C0.75 376.637 223.43 640 223.43 640C223.43 640 445.672 369.055 445.672 222.461C445.672 99.7969 345.879 0 223.211 0ZM290.332 287.598C271.824 306.102 247.52 315.355 223.211 315.355C198.906 315.355 174.594 306.102 156.094 287.598C119.082 250.59 119.082 190.371 156.094 153.359C174.016 135.43 197.855 125.555 223.211 125.555C248.566 125.555 272.402 135.434 290.332 153.359C327.344 190.371 327.344 250.59 290.332 287.598Z" fill="white"/>
</svg>
